<svg xmlns="http://www.w3.org/2000/svg" width="62.084" height="19.974" viewBox="0 0 62.084 19.974">
  <g id="组_498" data-name="组 498" transform="translate(-281.001 -85.057)">
    <path id="联合_32" data-name="联合 32" d="M-18839.43-951.084a.92.92,0,0,1-.678-.284.921.921,0,0,1-.27-.687.958.958,0,0,1,.947-.957h5.836v-.915h-4.068a.858.858,0,0,1-.848-.867.858.858,0,0,1,.848-.867h4.068v-.111a4.207,4.207,0,0,1-3.2-4.108,4.186,4.186,0,0,1,4.146-4.223,4.188,4.188,0,0,1,4.148,4.223,4.209,4.209,0,0,1-3.2,4.108v.111h4.063a.859.859,0,0,1,.854.867.859.859,0,0,1-.854.867h-4.062v.915h5.836a.96.96,0,0,1,.947.967.96.96,0,0,1-.947.967Q-18832.646-951.079-18839.43-951.084Zm4.266-8.8a2.541,2.541,0,0,0,2.518,2.56,2.541,2.541,0,0,0,2.518-2.56,2.542,2.542,0,0,0-2.518-2.564A2.542,2.542,0,0,0-18835.164-959.882Zm-19.76,8.8a.958.958,0,0,1-.949-.962.962.962,0,0,1,.949-.967h3.73v-15.775h-3.73a.962.962,0,0,1-.949-.967.958.958,0,0,1,.949-.962h9.355a.958.958,0,0,1,.949.962.962.962,0,0,1-.949.967h-3.73v15.775h3.617a2.374,2.374,0,0,0,2.355-2.157l.982-9.48a2.378,2.378,0,0,1,2.355-2.161h12a.983.983,0,0,0,.973-.991.982.982,0,0,0-.973-.986h-13.072a.957.957,0,0,1-.943-.967.953.953,0,0,1,.943-.962h13.072a2.9,2.9,0,0,1,2.869,2.915,2.9,2.9,0,0,1-2.869,2.92h-10.811a1.479,1.479,0,0,0-1.471,1.351l-.9,8.67a4.158,4.158,0,0,1-4.119,3.778Zm-9.793,0a7.381,7.381,0,0,1-5.139-2.086,7.656,7.656,0,0,1-2.318-5.115l-.436-8.575a.941.941,0,0,1,.242-.7.916.916,0,0,1,.615-.313.889.889,0,0,1,.7.232.941.941,0,0,1,.328.678l.439,8.575a5.7,5.7,0,0,0,1.727,3.82,5.524,5.524,0,0,0,3.84,1.55h7.086a.96.96,0,0,1,.947.967.956.956,0,0,1-.947.962Zm-14.994,0a.956.956,0,0,1-.947-.962.96.96,0,0,1,.947-.967h1.414a1.078,1.078,0,0,0,1.066-1.085v-16a.956.956,0,0,1,.947-.962.956.956,0,0,1,.947.962v16a2.993,2.993,0,0,1-2.961,3.015Zm-7.252-.953a.967.967,0,0,1,.65-1.194l.014,0a5.516,5.516,0,0,0,2.285-1.327,5.706,5.706,0,0,0,1.73-3.82l.439-8.575a.941.941,0,0,1,.328-.678.889.889,0,0,1,.7-.232.916.916,0,0,1,.615.313.941.941,0,0,1,.242.7l-.441,8.575a7.624,7.624,0,0,1-2.312,5.115,7.468,7.468,0,0,1-3.066,1.792h-.014v0a.942.942,0,0,1-.262.037A.95.95,0,0,1-18886.963-952.032Zm23.762-3.991a2.9,2.9,0,0,1-2.867-2.92,2.9,2.9,0,0,1,2.867-2.92h5.527a.96.96,0,0,1,.947.967.96.96,0,0,1-.947.967h-5.527a.979.979,0,0,0-.971.986.983.983,0,0,0,.971.991h2.807a.956.956,0,0,1,.947.962.96.96,0,0,1-.947.967Zm31.887-3.858a1.368,1.368,0,0,0-.389-.962,1.342,1.342,0,0,0-.943-.4.3.3,0,0,1-.3-.3.3.3,0,0,1,.3-.3,1.924,1.924,0,0,1,1.361.573,1.975,1.975,0,0,1,.563,1.389.3.3,0,0,1-.293.3A.3.3,0,0,1-18831.314-959.882Zm-31.887-5a2.9,2.9,0,0,1-2.867-2.92,2.9,2.9,0,0,1,2.867-2.915h5.527a.956.956,0,0,1,.947.962.96.96,0,0,1-.947.967h-5.527a.982.982,0,0,0-.971.986.983.983,0,0,0,.971.991h2.807a.957.957,0,0,1,.947.967.956.956,0,0,1-.947.962Z" transform="translate(19168 1056.111)" fill="#fff" opacity="0.8"/>
  </g>
</svg>
