<svg xmlns="http://www.w3.org/2000/svg" width="36" height="36" viewBox="0 0 36 36">
  <defs>
    <style>
      .cls-1 {
        fill: rgba(0,0,0,0.2);
        stroke: rgba(235,235,245,0.3);
      }

      .cls-2 {
        fill: #fff;
      }

      .cls-3 {
        stroke: none;
      }

      .cls-4 {
        fill: none;
      }
    </style>
  </defs>
  <g id="icon_场景选择" transform="translate(1 1)">
    <g id="椭圆_100" data-name="椭圆 100" class="cls-1">
      <circle class="cls-3" cx="17" cy="17" r="17"/>
      <circle class="cls-4" cx="17" cy="17" r="17.5"/>
    </g>
    <path id="联合_21" data-name="联合 21" class="cls-2" d="M1,1054a1,1,0,0,1-1-1v-4a1,1,0,0,1,1-1H5a1,1,0,0,1,1,1v4a1,1,0,0,1-1,1Zm-8,0a1,1,0,0,1-1-1v-4a1,1,0,0,1,1-1h4a1,1,0,0,1,1,1v4a1,1,0,0,1-1,1Zm8-8a1,1,0,0,1-1-1v-4a1,1,0,0,1,1-1H5a1,1,0,0,1,1,1v4a1,1,0,0,1-1,1Zm-8,0a1,1,0,0,1-1-1v-4a1,1,0,0,1,1-1h4a1,1,0,0,1,1,1v4a1,1,0,0,1-1,1Z" transform="translate(18 -1030)"/>
  </g>
</svg>
