<svg xmlns="http://www.w3.org/2000/svg" width="6.963" height="11.833" viewBox="0 0 6.963 11.833">
  <defs>
    <style>
      .cls-1 {
        fill: #2a2f3a;
      }
    </style>
  </defs>
  <path id="减去_22" data-name="减去 22" class="cls-1" d="M-18652.562-2043.168h-5.914a.51.51,0,0,1-.523-.52v-10.789a.512.512,0,0,1,.523-.524h5.914a.519.519,0,0,1,.525.524v10.789A.517.517,0,0,1-18652.562-2043.168Zm-3.432-1.915a.5.5,0,0,0-.5.5.5.5,0,0,0,.5.5h1a.5.5,0,0,0,.5-.5.5.5,0,0,0-.5-.5Zm-2.309-8.7h0v7.7h5.566v-7.7h-5.566Z" transform="translate(18659 2055.001)"/>
</svg>
