<svg xmlns="http://www.w3.org/2000/svg" xmlns:xlink="http://www.w3.org/1999/xlink" width="60" height="60" viewBox="0 0 60 60">
  <defs>
    <style>
      .cls-1 {
        fill: #2d2d30;
        opacity: 0;
      }

      .cls-2 {
        fill: #fff;
      }

      .cls-3 {
        filter: url(#联合_99);
      }
    </style>
    <filter id="联合_99" x="0.5" y="14" width="59" height="36" filterUnits="userSpaceOnUse">
      <feOffset dy="2" input="SourceAlpha"/>
      <feGaussianBlur stdDeviation="2.5" result="blur"/>
      <feFlood flood-opacity="0.6"/>
      <feComposite operator="in" in2="blur"/>
      <feComposite in="SourceGraphic"/>
    </filter>
  </defs>
  <g id="组_1012" data-name="组 1012" transform="translate(-308 -571)">
    <rect id="标题框" class="cls-1" width="60" height="60" rx="4" transform="translate(308 571)"/>
    <g class="cls-3" transform="matrix(1, 0, 0, 1, 308, 571)">
      <path id="联合_99-2" data-name="联合 99" class="cls-2" d="M9.955,21H0L8.789,6.775l.008,0a3.949,3.949,0,0,1,3.319-1.969H29.477L29.388.178,29.436,0,44,7.592,24.631,17.623l.053-.2L28.276,10.2H16.586v.005c-.063,0-.126-.005-.195-.005a3.446,3.446,0,0,0-.438.028h0a3.572,3.572,0,0,0-2.544,1.649,3.967,3.967,0,0,0-.453.993l0,.008c-.008.027-.016.055-.024.083l-.007,0L9.956,21Z" transform="translate(8 19.5)"/>
    </g>
  </g>
</svg>
